inDegrees=no
num_controls=7
num_derivatives=13
num_iterations=148
num_multipliers=7
num_parameters=0
num_slacks=7
num_states=26
objective=5.312268
objective_accelerations=0.734799
objective_balance=0.014888
objective_effort=0.176962
objective_height=4.291234
objective_ligament=0.094384
solver_duration=1623.837082
status=Solve_Succeeded
success=true
DataType=double
version=3
OpenSimVersion=4.4-2022-07-23-0e9fedc
endheader
time	/jointset/ground_pelvis/pelvis_tilt/value	/jointset/ground_pelvis/pelvis_tx/value	/jointset/ground_pelvis/pelvis_ty/value	/jointset/hip_l/hip_flexion_l/value	/jointset/hip_l/hip_adduction_l/value	/jointset/hip_l/hip_rotation_l/value	/jointset/back/lumbar_extension/value	/jointset/patellofemoral_l/patellar_flexion_l/value	/jointset/knee_l/knee_flexion_l/value	/jointset/knee_l/knee_adduction_l/value	/jointset/knee_l/knee_rotation_l/value	/jointset/ankle_l/ankle_angle_l/value	/jointset/subtalar_l/subtalar_angle_l/value	/jointset/ground_pelvis/pelvis_tilt/speed	/jointset/ground_pelvis/pelvis_tx/speed	/jointset/ground_pelvis/pelvis_ty/speed	/jointset/hip_l/hip_flexion_l/speed	/jointset/hip_l/hip_adduction_l/speed	/jointset/hip_l/hip_rotation_l/speed	/jointset/back/lumbar_extension/speed	/jointset/patellofemoral_l/patellar_flexion_l/speed	/jointset/knee_l/knee_flexion_l/speed	/jointset/knee_l/knee_adduction_l/speed	/jointset/knee_l/knee_rotation_l/speed	/jointset/ankle_l/ankle_angle_l/speed	/jointset/subtalar_l/subtalar_angle_l/speed	/forceset/tau_hip_flexion_l	/forceset/tau_hip_adduction_l	/forceset/tau_hip_rotation_l	/forceset/tau_knee_flexion_l	/forceset/tau_ankle_angle_l	/forceset/tau_subtalar_angle_l	/forceset/tau_lumbar_extension	lambda_cid13_p0	lambda_cid13_p1	lambda_cid13_p2	lambda_cid13_p3	lambda_cid13_p4	lambda_cid13_p5	lambda_cid14_p0	/jointset/ground_pelvis/pelvis_tilt/accel	/jointset/ground_pelvis/pelvis_tx/accel	/jointset/ground_pelvis/pelvis_ty/accel	/jointset/hip_l/hip_flexion_l/accel	/jointset/hip_l/hip_adduction_l/accel	/jointset/hip_l/hip_rotation_l/accel	/jointset/back/lumbar_extension/accel	/jointset/patellofemoral_l/patellar_flexion_l/accel	/jointset/knee_l/knee_flexion_l/accel	/jointset/knee_l/knee_adduction_l/accel	/jointset/knee_l/knee_rotation_l/accel	/jointset/ankle_l/ankle_angle_l/accel	/jointset/subtalar_l/subtalar_angle_l/accel	gamma_cid13_p0	gamma_cid13_p1	gamma_cid13_p2	gamma_cid13_p3	gamma_cid13_p4	gamma_cid13_p5	gamma_cid14_p0
1	-0.4279784221084428	-0.004715259503875945	0.5918556065171251	1.690350269244691	-0.3448870627667227	0.1239239590781286	-0.4363245925281785	1.52096914363927	1.520969143639251	0.07933606993518934	-0.1745228129289882	0.4351044105220348	0.2523849934901449	-0.1432120682758972	0.0003907197028270798	0.03333526391900821	0.02761230994543897	0.001214171494037644	-0.0592757427440688	1.600093084030569e-06	-0.1527564225314646	-0.1527564225314793	5.529792121816115e-06	-1.40239317001119e-05	-0.05007502104012677	-0.02840987528004401	-0.2313227969006302	0.02856567109654065	-0.01696104477162679	-0.2995660690770507	-0.03580435530540072	0.0211545847293561	0.2043725210260714	-42.50480096180424	2.73391214384796	-5.833040801768648	7.914469860174036	-542.4833754018085	-78.27344503665663	-0.02381338102645441	1.426469294087221	0.1505792106512281	2.010599919817504	-6.515910684646631	-0.1715166497624384	-1.600276916250179	-0.01648640915557731	-5.633216071031566	-5.633216071031517	-0.7901276468111931	-0.03323265266186001	-1.028601764866373	-0.8961173027630642	1.188801492338984e-09	-1.428104439880242e-07	-6.350318690958163e-08	-1.452353585292862e-08	-7.567608835931266e-09	-1.899641581045063e-07	6.367214401503982e-09
1.01	-0.4293398709550943	-0.004703815316268294	0.5922892575345221	1.690301667799169	-0.3448828223323389	0.1232534082380802	-0.4363245917698717	1.519160400346466	1.519160400346453	0.07929544784202944	-0.1745229245550001	0.4345522497730241	0.2520572239340766	-0.1290676276534199	0.001904181768296437	0.05338384991706331	-0.03731706570042792	-0.0003597720777710707	-0.07482451948182632	-6.448022453633653e-06	-0.20898151638153	-0.2089815163815603	-0.00812375762486451	-8.131965884845576e-06	-0.06036843433450903	-0.03713431297127719	-0.2316647364021158	0.02863529847492107	-0.01699972669749266	-0.2985812332175413	-0.03606081156585152	0.02119134166329513	0.2045213945173414	-42.54836311489453	2.691765084782169	-5.787701327832445	7.813174969124273	-542.2120280805015	-78.1104992291127	-0.02382994157455116	1.409943267974011	0.1526343972348297	2.000322113738406	-6.479120211349833	-0.1493718272796289	-1.530699261888225	0.006286047857930459	-5.61554965859932	-5.615549658601709	-0.8234135697292146	0.01749556906780878	-1.031415067091641	-0.8591080975798949	2.083443007240918e-09	-1.87770950407421e-07	-8.967076800129796e-08	-2.43988050468013e-08	-1.185446535914037e-08	-2.435869451780717e-07	7.804305322635403e-09
1.02	-0.4305595730311925	-0.004677055569457941	0.5929230612466881	1.689604238755823	-0.3448941290569525	0.1224276653887836	-0.4363248214805321	1.516789727391841	1.516789727391834	0.07917371601869369	-0.1745229781717741	0.4338968140999976	0.2516425097820403	-0.1148627141650992	0.003453831543367317	0.07336580287272382	-0.1021532096180109	-0.00189526030515746	-0.09031414459357316	-4.449371355437905e-05	-0.2651423548958021	-0.2651423548958481	-0.01621641626532951	-2.422085485296838e-06	-0.07073000584358996	-0.04579879447356769	-0.2320066759036387	0.0287049258532811	-0.01703840862303609	-0.2975963973580162	-0.03631726782630058	0.02122809859719638	0.2046702680085684	-42.59698105142151	2.649483961251394	-5.741175908379413	7.716855433829366	-542.0524266843778	-77.94614997647969	-0.0238495332761753	1.438563867255884	0.1578167525715367	1.997273311338585	-6.497264338989844	-0.163825580877983	-1.588446591048052	-0.02248592426812358	-5.620365003872913	-5.620365003872878	-0.7828018915069259	-0.03326906974501873	-1.042233407806101	-0.8841260649745377	2.015785296609582e-09	-2.312742830708352e-07	-1.152936673063852e-07	-3.178976017858573e-08	-1.690311976255663e-08	-2.939079942770174e-07	9.166268830015768e-09
1.03	-0.4316368800922322	-0.004634552778132432	0.5937562981191483	1.688258941167367	-0.3449205838554871	0.1214473424056234	-0.436325529635904	1.513857813761935	1.513857813761919	0.07897127744311104	-0.1745229740765189	0.4331374144491157	0.2511414940197372	-0.1005843691958024	0.005059342450364181	0.09326522418089939	-0.1668884689948568	-0.003387899122158191	-0.1057367118766818	-9.700637618756423e-05	-0.3212251469475189	-0.3212251469475207	-0.02426362442681557	3.733887177018976e-06	-0.08116181802954324	-0.05439003023886176	-0.2321332596716153	0.0287721151051623	-0.01703911371950239	-0.2965271529664431	-0.0363309346873912	0.0212921478896734	0.2047046630418067	-42.54502702690024	2.576467702495447	-5.68829709250659	7.503405749531836	-541.6658516371793	-77.79906449504158	-0.02387397832146177	1.424619682569275	0.1638027433483178	1.983820002236698	-6.458980424877909	-0.1407892338612574	-1.51711150582618	0.003385711107810079	-5.599954798894306	-5.599954798887699	-0.8145489064489746	0.01758637629660607	-1.045451293261501	-0.8444126148137259	1.93830820612586e-09	-2.747627466142903e-07	-1.409110086340579e-07	-3.915536516687944e-08	-2.195954761373011e-08	-3.441953521721403e-07	1.052746573113336e-08
1.04	-0.4325709737294202	-0.004575617981020006	0.5947880378970268	1.686266826247564	-0.3449617262825438	0.1203132038078519	-0.436326758988185	1.510365528512898	1.510365528512876	0.07868859306044255	-0.174522902732416	0.4322733374425217	0.2505550078432794	-0.08622002939439377	0.006740232700750633	0.1130663839563032	-0.2315166758855315	-0.004832786009158123	-0.1210772675151493	-0.0001487331040655996	-0.3772166787221614	-0.3772166787221189	-0.03226557770748773	1.102768083080743e-05	-0.09166547698635948	-0.0628928773044307	-0.2322598434396508	0.02883930435701341	-0.01703981881560964	-0.2954579085748547	-0.03634460154848016	0.02135619718209607	0.2047390580749779	-42.49831938163327	2.503392378317323	-5.634291842144982	7.295392970393392	-541.3918712587141	-77.65144287555552	-0.02390158489607121	1.455762833678218	0.172892621249455	1.977621004784246	-6.475853841755621	-0.1542751948778139	-1.57204426211981	-0.02232873731662695	-5.602112948458055	-5.602112948458016	-0.7737509153441418	-0.03304150554669068	-1.056602761978693	-0.866448325029488	2.795994859278655e-09	-3.15548739283471e-07	-1.649627625626936e-07	-4.819345673264592e-08	-2.548215838494329e-08	-3.890389788406432e-07	1.146645367521892e-08
1.05	-0.4333610418494765	-0.004499456151405986	0.5960171765899221	1.683629263042597	-0.3450170559280343	0.1190261140808256	-0.436328483734891	1.506313988706704	1.506313988706696	0.07832619581468803	-0.1745227564566879	0.431303847995208	0.2498839844269691	-0.07178463070280006	0.008508818330104122	0.1327328868273633	-0.2959483703478898	-0.00622222274675207	-0.1363191796028176	-0.0001938020035479071	-0.4330554536771775	-0.4330554536771367	-0.04020097274353134	2.037251517522122e-05	-0.1022454064515049	-0.07129071285391032	-0.2320209610635533	0.02882244527113203	-0.01700457602964729	-0.294256526833221	-0.03608606821313273	0.02148966376439909	0.2045281613608443	-42.32563440277929	2.369441353863839	-5.560678336360182	6.971622388545004	-540.7123640963615	-77.56353883010102	-0.02393425949592399	1.438773109870631	0.1813327514014638	1.956888932497925	-6.419687974481675	-0.1296073112690213	-1.497054192499756	0.004766161949772606	-5.569387930918693	-5.569387930918971	-0.8015256147455484	0.01818442541246711	-1.060652685458159	-0.8232078822046611	3.682905379420087e-09	-3.562502797378305e-07	-1.889655918851093e-07	-5.728381350395841e-08	-2.895683737240772e-08	-4.337124889083141e-07	1.239224758939722e-08
